<?xml version="1.0" standalone="no"?>
<!DOCTYPE svg PUBLIC "-//W3C//DTD SVG 20010904//EN"
 "http://www.w3.org/TR/2001/REC-SVG-20010904/DTD/svg10.dtd">
<svg version="1.0" xmlns="http://www.w3.org/2000/svg"
 width="512.000000pt" height="512.000000pt" viewBox="0 0 512.000000 512.000000"
 preserveAspectRatio="xMidYMid meet">

<g transform="translate(0.000000,512.000000) scale(0.100000,-0.100000)"
 stroke="none">
<path d="M2925 5075 c-183 -47 -205 -60 -205 -117 0 -35 40 -78 72 -78 13 0
82 15 154 34 l131 33 156 -314 157 -313 -710 0 -711 0 -24 -25 -25 -24 0 -271
0 -271 25 -24 c22 -23 31 -25 123 -25 l99 0 7 -127 c4 -69 12 -136 18 -147 28
-52 84 -61 124 -21 l26 26 -8 134 -7 135 1192 0 c1127 0 1191 -1 1192 -17 0
-10 -51 -802 -113 -1761 l-113 -1742 -417 0 -417 0 -27 -23 c-37 -33 -37 -81
0 -114 l27 -23 470 0 470 0 23 23 c28 28 10 -205 147 1910 l114 1747 98 0 c91
0 100 2 122 25 l25 24 0 271 0 271 -25 24 -24 25 -751 0 -750 0 -195 390
c-116 233 -202 393 -214 400 -29 15 -51 12 -236 -35z m2035 -1075 l0 -160
-1440 0 -1440 0 0 160 0 160 1440 0 1440 0 0 -160z"/>
<path d="M1080 3195 c-8 -2 -49 -9 -90 -15 -232 -38 -459 -157 -636 -334 -168
-168 -273 -360 -330 -603 -11 -49 -17 -141 -21 -330 l-5 -262 25 -25 c22 -22
35 -26 82 -26 l55 0 0 -139 c0 -141 8 -184 42 -233 19 -28 19 -28 0 -55 -34
-50 -42 -93 -42 -234 l0 -139 -55 0 c-46 0 -60 -4 -81 -25 l-26 -26 4 -222 3
-223 37 -76 c45 -91 103 -147 196 -191 l67 -32 1455 0 1455 0 67 32 c93 44
151 100 196 191 l37 76 3 223 4 222 -26 26 c-21 21 -35 25 -81 25 l-55 0 0
139 c0 141 -8 184 -42 234 -19 27 -19 27 0 55 34 49 42 92 42 233 l0 139 55 0
c47 0 60 4 82 26 l25 25 -5 262 c-4 187 -10 282 -21 330 -56 242 -162 435
-330 603 -165 164 -353 269 -586 327 -82 20 -113 21 -785 23 -385 1 -707 1
-715 -1z m1405 -170 c107 -17 203 -49 305 -100 105 -53 153 -87 243 -174 233
-225 327 -465 327 -832 l0 -159 -1600 0 -1600 0 0 158 c0 241 31 387 116 555
146 288 433 498 752 552 119 20 1334 20 1457 0z m715 -1560 c0 -131 -1 -137
-25 -160 l-24 -25 -1391 0 -1391 0 -24 25 c-24 23 -25 29 -25 160 l0 135 1440
0 1440 0 0 -135z m-1297 -505 l107 -160 -845 0 -845 0 0 135 c0 131 1 137 25
160 l24 25 714 0 714 0 106 -160z m585 -85 c-90 -134 -165 -244 -168 -244 -3
0 -78 110 -168 244 l-162 245 330 0 330 0 -162 -245z m687 220 c24 -23 25 -29
25 -160 l0 -135 -285 0 -285 0 107 160 106 160 154 0 c150 0 155 -1 178 -25z
m-982 -570 c55 -82 84 -116 102 -121 53 -13 72 2 152 121 l76 115 419 0 418 0
0 -136 c0 -78 -5 -154 -12 -178 -16 -55 -99 -138 -154 -154 -60 -17 -2808 -17
-2868 0 -55 16 -138 99 -154 154 -7 24 -12 100 -12 178 l0 136 978 0 979 0 76
-115z"/>
<path d="M1545 2775 c-50 -49 -15 -135 55 -135 41 0 80 39 80 80 0 41 -39 80
-80 80 -19 0 -40 -9 -55 -25z"/>
<path d="M905 2695 c-50 -49 -15 -135 55 -135 41 0 80 39 80 80 0 41 -39 80
-80 80 -19 0 -40 -9 -55 -25z"/>
<path d="M2345 2695 c-50 -49 -15 -135 55 -135 41 0 80 39 80 80 0 41 -39 80
-80 80 -19 0 -40 -9 -55 -25z"/>
<path d="M2825 2375 c-50 -49 -15 -135 55 -135 41 0 80 39 80 80 0 41 -39 80
-80 80 -19 0 -40 -9 -55 -25z"/>
<path d="M1705 2295 c-50 -49 -15 -135 55 -135 19 0 40 9 55 25 16 15 25 36
25 55 0 19 -9 40 -25 55 -15 16 -36 25 -55 25 -19 0 -40 -9 -55 -25z"/>
<path d="M585 2215 c-16 -15 -25 -36 -25 -55 0 -19 9 -40 25 -55 15 -16 36
-25 55 -25 19 0 40 9 55 25 16 15 25 36 25 55 0 19 -9 40 -25 55 -15 16 -36
25 -55 25 -19 0 -40 -9 -55 -25z"/>
<path d="M2345 2135 c-50 -49 -15 -135 55 -135 19 0 40 9 55 25 16 15 25 36
25 55 0 19 -9 40 -25 55 -15 16 -36 25 -55 25 -19 0 -40 -9 -55 -25z"/>
<path d="M1225 2055 c-16 -15 -25 -36 -25 -55 0 -19 9 -40 25 -55 15 -16 36
-25 55 -25 19 0 40 9 55 25 16 15 25 36 25 55 0 19 -9 40 -25 55 -15 16 -36
25 -55 25 -19 0 -40 -9 -55 -25z"/>
<path d="M3465 2855 c-32 -31 -33 -78 -2 -109 19 -19 38 -24 110 -29 178 -14
325 -83 452 -211 92 -93 144 -177 182 -291 23 -71 26 -96 26 -215 1 -118 -3
-145 -25 -212 -39 -119 -92 -204 -182 -294 -119 -119 -262 -190 -421 -209 -75
-9 -89 -17 -105 -55 -16 -37 -3 -71 35 -96 22 -14 34 -15 107 -4 358 52 638
307 734 666 27 103 26 312 -3 419 -92 340 -362 591 -698 650 -131 22 -181 20
-210 -10z"/>
</g>
</svg>
