<?xml version="1.0" standalone="no"?>
<!DOCTYPE svg PUBLIC "-//W3C//DTD SVG 20010904//EN"
 "http://www.w3.org/TR/2001/REC-SVG-20010904/DTD/svg10.dtd">
<svg version="1.0" xmlns="http://www.w3.org/2000/svg"
 width="512.000000pt" height="512.000000pt" viewBox="0 0 512.000000 512.000000"
 preserveAspectRatio="xMidYMid meet">

<g transform="translate(0.000000,512.000000) scale(0.100000,-0.100000)"
 stroke="none">
<path d="M2925 5075 c-183 -47 -205 -60 -205 -117 0 -34 39 -78 70 -78 12 0
75 14 140 30 65 17 126 30 134 30 11 0 55 -78 131 -230 l115 -230 90 0 90 0
-155 310 c-91 182 -163 313 -174 320 -29 15 -51 12 -236 -35z"/>
<path d="M1945 4295 c-25 -24 -25 -26 -25 -215 0 -189 0 -191 25 -215 l24 -25
1551 0 1551 0 24 25 c25 24 25 26 25 215 0 189 0 191 -25 215 l-24 25 -1551 0
-1551 0 -24 -25z"/>
<path d="M2175 3528 c4 -84 9 -156 11 -159 2 -3 74 -9 161 -12 87 -4 191 -13
232 -22 264 -53 509 -185 702 -377 l87 -87 104 6 c255 14 494 -79 673 -261
340 -345 338 -894 -5 -1236 -161 -161 -391 -260 -607 -260 -49 0 -54 -2 -48
-17 26 -63 35 -117 35 -213 l0 -108 30 -12 c44 -18 105 -92 120 -145 20 -72 8
-324 -19 -399 -25 -71 -63 -138 -104 -186 l-31 -35 534 -3 c568 -2 569 -2 584
45 6 19 236 3522 236 3592 l0 41 -1351 0 -1352 0 8 -152z"/>
<path d="M1080 3195 c-8 -2 -49 -9 -90 -15 -407 -66 -765 -365 -916 -767 -49
-128 -65 -226 -71 -420 l-6 -181 26 -26 26 -26 1711 0 1711 0 26 26 26 26 -6
181 c-6 194 -22 292 -71 420 -145 385 -458 659 -866 760 -82 20 -113 21 -785
23 -385 1 -707 1 -715 -1z m575 -340 c50 -49 15 -135 -55 -135 -41 0 -80 39
-80 80 0 41 39 80 80 80 19 0 40 -9 55 -25z m-640 -80 c50 -49 15 -135 -55
-135 -41 0 -80 39 -80 80 0 41 39 80 80 80 19 0 40 -9 55 -25z m1440 0 c50
-49 15 -135 -55 -135 -41 0 -80 39 -80 80 0 41 39 80 80 80 19 0 40 -9 55 -25z
m480 -320 c50 -49 15 -135 -55 -135 -41 0 -80 39 -80 80 0 41 39 80 80 80 19
0 40 -9 55 -25z m-1120 -80 c50 -49 15 -135 -55 -135 -19 0 -40 9 -55 25 -16
15 -25 36 -25 55 0 19 9 40 25 55 15 16 36 25 55 25 19 0 40 -9 55 -25z
m-1120 -80 c16 -15 25 -36 25 -55 0 -19 -9 -40 -25 -55 -49 -50 -135 -15 -135
55 0 41 39 80 80 80 19 0 40 -9 55 -25z m1760 -80 c50 -49 15 -135 -55 -135
-19 0 -40 9 -55 25 -16 15 -25 36 -25 55 0 19 9 40 25 55 15 16 36 25 55 25
19 0 40 -9 55 -25z m-1120 -80 c50 -49 15 -135 -55 -135 -19 0 -40 9 -55 25
-16 15 -25 36 -25 55 0 19 9 40 25 55 15 16 36 25 55 25 19 0 40 -9 55 -25z"/>
<path d="M3481 2714 c2 -5 27 -56 56 -114 101 -208 132 -338 140 -597 4 -132
2 -195 -7 -228 -15 -53 -76 -127 -120 -145 l-30 -12 0 -108 c0 -97 -9 -149
-35 -214 -8 -18 -4 -19 82 -13 181 13 329 81 459 211 90 90 143 175 182 294
22 67 26 94 26 212 0 118 -4 145 -26 212 -39 119 -92 204 -182 294 -91 91
-177 144 -293 181 -77 24 -259 44 -252 27z"/>
<path d="M162 1491 c3 -118 12 -141 72 -185 27 -21 28 -21 1526 -21 1498 0
1499 0 1526 21 60 44 69 67 72 185 l4 109 -1602 0 -1602 0 4 -109z"/>
<path d="M255 1106 c-72 -32 -95 -83 -95 -212 l0 -94 925 0 925 0 -107 160
-106 160 -756 0 c-608 -1 -762 -3 -786 -14z"/>
<path d="M2152 875 c90 -134 165 -244 168 -244 3 0 78 110 168 244 l162 245
-330 0 -330 0 162 -245z"/>
<path d="M2737 961 l-107 -161 366 0 366 0 -4 109 c-3 118 -12 141 -72 185
-25 19 -44 21 -235 24 l-207 3 -107 -160z"/>
<path d="M23 614 c-25 -25 -25 -26 -22 -168 4 -141 5 -143 41 -218 45 -91 103
-147 196 -191 l67 -32 1456 0 1455 0 76 37 c91 45 147 103 191 196 30 63 32
75 35 209 4 141 4 142 -21 167 l-26 26 -474 0 -474 0 -73 -111 c-76 -114 -92
-129 -133 -129 -34 0 -62 30 -136 143 l-64 97 -1034 0 -1034 0 -26 -26z"/>
</g>
</svg>
