<svg id="svg" version="1.1" xmlns="http://www.w3.org/2000/svg" xmlns:xlink="http://www.w3.org/1999/xlink" width="400" height="400" viewBox="0, 0, 400,400"><g id="svgg"><path id="path0" d="M335.547 0.479 C 302.208 5.239,277.785 12.615,248.130 26.879 C 234.352 33.507,233.174 34.804,233.294 43.220 C 233.545 60.765,246.334 87.392,266.128 111.574 L 268.248 114.164 260.691 121.721 L 253.134 129.278 223.637 99.857 C 191.343 67.646,191.351 67.653,184.477 69.504 C 178.034 71.239,175.355 75.319,175.950 82.492 L 176.311 86.851 206.128 116.675 L 235.945 146.499 225.787 156.635 L 215.629 166.770 189.260 140.479 C 160.383 111.688,160.030 111.422,153.227 113.254 C 146.784 114.989,144.105 119.069,144.700 126.241 L 145.061 130.600 171.753 157.300 L 198.445 184.000 188.289 194.133 L 178.134 204.266 158.012 184.230 C 135.950 162.262,134.833 161.475,128.227 163.254 C 121.785 164.989,119.105 169.069,119.700 176.240 L 120.061 180.597 140.502 201.049 L 160.943 221.501 150.797 231.625 L 140.650 241.749 129.895 231.106 C 117.985 219.319,115.469 217.890,109.477 219.504 C 103.036 221.238,100.355 225.319,100.949 232.485 L 101.310 236.837 112.390 247.937 L 123.470 259.037 120.783 261.641 C 113.438 268.760,59.174 270.270,22.489 264.375 L 10.213 262.402 6.690 263.960 C 1.224 266.378,0.006 269.046,0.003 278.609 C -0.010 313.465,18.134 340.752,45.794 347.476 L 51.353 348.827 52.354 353.860 C 57.646 380.486,85.842 399.517,120.101 399.588 L 130.437 399.609 133.264 396.785 C 136.848 393.205,137.451 390.239,136.185 382.422 C 129.432 340.721,130.433 288.045,138.140 279.515 L 140.874 276.488 151.882 287.400 C 158.660 294.119,163.734 298.524,165.086 298.862 C 173.967 301.085,181.411 294.859,180.539 285.938 C 180.154 281.993,178.601 279.889,168.699 269.900 L 157.835 258.940 167.976 248.821 L 178.117 238.703 198.629 259.142 C 212.160 272.625,219.888 279.765,221.336 280.121 C 230.244 282.315,237.661 276.107,236.789 267.188 C 236.384 263.038,234.457 260.731,215.575 241.782 L 195.320 221.454 205.471 211.326 L 215.621 201.198 242.381 227.892 C 260.343 245.810,269.862 254.763,271.336 255.124 C 281.616 257.643,288.625 250.098,286.255 239.063 C 285.994 237.847,275.826 227.075,259.326 210.534 L 232.816 183.958 242.969 173.827 L 253.123 163.697 283.007 193.517 C 303.184 213.652,313.604 223.512,315.086 223.875 C 324.640 226.212,332.792 218.273,330.376 208.984 C 329.684 206.322,325.175 201.460,299.938 176.158 L 270.312 146.457 278.417 138.379 C 283.244 133.569,286.737 130.647,287.051 131.156 C 291.454 138.280,328.489 155.795,347.656 159.817 C 366.912 163.858,370.956 162.036,376.974 146.608 C 403.126 79.563,407.271 27.277,387.789 10.172 C 378.828 2.304,354.445 -2.220,335.547 0.479 M362.451 24.991 C 373.900 27.162,375.396 30.012,375.376 49.609 C 375.357 68.935,371.241 88.944,361.316 117.969 C 358.891 125.059,356.513 132.040,356.031 133.483 C 354.936 136.761,352.562 136.601,340.007 132.400 C 304.792 120.616,272.955 89.803,261.010 55.942 C 259.661 52.121,258.662 48.890,258.790 48.762 C 260.084 47.468,281.857 38.677,293.359 34.804 C 318.597 26.307,347.640 22.182,362.451 24.991 M300.993 51.534 C 289.513 56.745,293.745 74.219,306.486 74.219 C 318.803 74.219,322.744 57.340,311.731 51.758 C 307.517 49.622,305.307 49.576,300.993 51.534 M44.141 291.510 C 54.574 292.472,96.256 291.914,104.685 290.700 C 110.730 289.829,110.111 289.264,109.315 294.922 C 106.822 312.654,106.881 348.087,109.434 366.968 C 110.552 375.234,110.684 375.065,104.432 373.427 C 85.974 368.593,76.595 358.191,74.935 340.714 C 73.781 328.561,71.284 326.119,58.816 324.954 C 42.008 323.385,31.579 314.009,26.582 295.976 C 25.712 292.835,25.000 290.121,25.000 289.943 C 25.000 289.766,27.197 289.852,29.883 290.133 C 32.568 290.415,38.984 291.035,44.141 291.510 " stroke="none" ></path></g></svg>