<?xml version="1.0" standalone="no"?>
<!DOCTYPE svg PUBLIC "-//W3C//DTD SVG 20010904//EN"
 "http://www.w3.org/TR/2001/REC-SVG-20010904/DTD/svg10.dtd">
<svg version="1.0" xmlns="http://www.w3.org/2000/svg"
 width="512.000000pt" height="512.000000pt" viewBox="0 0 512.000000 512.000000"
 preserveAspectRatio="xMidYMid meet">

<g transform="translate(0.000000,512.000000) scale(0.100000,-0.100000)"
 stroke="none">
<path d="M2321 5110 c-435 -42 -855 -195 -1214 -443 -90 -63 -105 -84 -93
-133 8 -30 60 -56 91 -44 11 4 71 42 134 84 128 86 345 196 496 251 452 167
997 189 1460 59 414 -116 761 -319 1065 -624 278 -277 462 -574 585 -945 166
-498 166 -1013 0 -1510 -124 -372 -307 -668 -585 -945 -279 -280 -587 -470
-956 -590 -714 -232 -1476 -123 -2099 301 -685 465 -1084 1255 -1052 2079 24
593 250 1132 656 1564 88 92 96 114 60 160 -15 19 -30 26 -55 26 -30 0 -44
-10 -109 -78 -375 -391 -609 -883 -686 -1442 -20 -143 -18 -527 4 -670 90
-586 331 -1065 738 -1467 63 -62 155 -145 204 -185 642 -513 1493 -684 2290
-461 929 260 1646 1043 1819 1987 156 845 -103 1682 -705 2285 -398 398 -880
639 -1449 726 -125 19 -467 27 -599 15z"/>
<path d="M2343 4420 c-126 -16 -272 -50 -377 -87 -113 -40 -128 -41 -307 -26
-85 8 -162 8 -235 2 -316 -27 -485 -142 -549 -375 -26 -95 -31 -282 -11 -420
l17 -119 -36 -78 c-220 -476 -215 -1056 13 -1554 36 -78 51 -126 56 -171 22
-236 168 -530 345 -695 57 -54 104 -63 136 -27 34 37 24 73 -40 142 -264 285
-362 649 -269 1004 8 33 19 63 23 67 6 6 92 -33 129 -59 2 -1 -4 -28 -13 -60
-8 -33 -18 -104 -21 -159 -18 -288 120 -595 342 -764 192 -145 433 -212 658
-182 209 28 386 113 531 253 l59 58 63 -32 c35 -18 63 -37 63 -42 0 -16 -155
-162 -218 -205 -95 -64 -236 -128 -347 -157 -86 -23 -121 -27 -250 -27 -163
-1 -238 12 -361 58 -94 36 -120 40 -148 22 -31 -21 -40 -60 -22 -95 25 -48
210 -110 396 -133 200 -24 467 19 634 103 23 12 76 23 135 29 266 27 542 117
776 254 l30 18 69 -71 c80 -83 149 -122 214 -122 74 0 123 21 178 75 50 49 53
54 108 226 33 104 63 182 75 193 11 10 81 44 157 77 77 33 155 70 176 84 116
77 143 232 61 343 -33 45 -142 133 -197 161 -26 12 -46 26 -46 31 0 5 13 60
29 122 16 62 35 151 43 198 17 113 17 461 0 560 -96 534 -363 959 -792 1259
-102 71 -319 185 -412 216 -53 18 -57 18 -83 1 -36 -23 -49 -61 -33 -94 10
-20 41 -38 133 -77 467 -200 815 -575 969 -1047 108 -328 113 -715 16 -1031
l-19 -62 -113 -1 c-62 0 -133 -6 -156 -13 -51 -14 -58 -11 -127 80 -62 79
-113 177 -149 282 -24 70 -37 95 -57 106 -33 19 -74 8 -96 -25 -16 -25 -16
-30 0 -91 42 -160 131 -314 256 -446 85 -89 73 -87 235 -51 139 31 282 -4 405
-99 90 -70 113 -131 69 -181 -14 -14 -85 -51 -171 -87 -158 -67 -215 -106
-248 -170 -11 -22 -42 -109 -69 -194 -39 -119 -56 -159 -77 -174 -52 -41 -103
-22 -185 68 -61 67 -100 141 -123 227 -18 70 -19 122 -3 231 12 81 11 83 -12
108 -33 35 -153 117 -225 152 -88 44 -208 82 -310 98 -301 47 -364 58 -472 85
-406 99 -707 257 -953 500 -124 123 -300 338 -300 368 0 4 35 25 77 46 297
147 562 381 746 661 72 109 155 272 192 378 15 43 31 80 35 82 10 6 128 -60
230 -128 358 -238 583 -530 755 -982 31 -82 64 -156 73 -163 28 -21 82 -11
105 20 20 27 20 29 3 85 -10 32 -38 107 -62 168 -24 60 -44 112 -44 116 0 4
33 26 73 50 103 62 179 141 202 209 48 144 -2 320 -115 410 -54 42 -567 341
-624 362 -125 48 -261 30 -391 -51 -18 -12 -38 -4 -165 57 -80 39 -175 81
-212 94 -38 13 -68 26 -68 29 0 4 51 17 113 29 141 27 368 37 502 21 92 -11
101 -10 125 7 29 22 38 77 18 105 -8 10 -31 23 -53 28 -55 14 -394 20 -482 9z
m-563 -276 c114 -18 257 -55 363 -96 89 -34 86 -18 30 -163 -125 -322 -363
-616 -653 -810 -94 -62 -267 -155 -290 -155 -16 0 -104 189 -146 315 -61 183
-78 281 -78 455 -1 185 18 266 80 338 104 122 367 166 694 116z m1103 -185
c51 -14 581 -324 619 -363 42 -42 61 -91 60 -157 0 -60 -16 -101 -54 -136 -29
-27 -139 -93 -155 -93 -6 0 -26 26 -43 58 -120 212 -333 454 -528 597 -51 38
-89 72 -85 76 26 25 127 35 186 18z m-1913 -851 c29 -80 127 -277 181 -365
122 -195 326 -432 478 -555 325 -262 710 -412 1264 -493 98 -14 208 -35 245
-47 76 -23 185 -75 246 -117 l41 -29 1 -133 c1 -97 6 -149 18 -189 30 -95 35
-87 -109 -161 -112 -56 -292 -123 -389 -144 -27 -6 -24 -1 37 65 76 83 127
155 127 182 0 32 -18 55 -62 81 -24 13 -473 260 -998 547 -613 336 -964 523
-982 523 -15 0 -36 -7 -47 -17 -19 -18 -61 -124 -83 -211 l-12 -50 -24 75
c-75 239 -89 566 -37 824 13 62 75 276 80 276 1 0 12 -28 25 -62z m674 -1306
c137 -75 249 -141 248 -147 0 -8 -424 -285 -436 -285 -8 0 -67 143 -82 200
-29 108 -22 371 9 370 7 0 124 -62 261 -138z m709 -388 c304 -167 298 -163
290 -178 -20 -34 -126 -111 -208 -152 -86 -42 -158 -65 -252 -79 l-43 -7 0
100 c0 54 -3 174 -7 265 -3 92 -3 167 1 167 3 0 102 -52 219 -116z m-364 -277
l1 -129 -32 7 c-121 24 -261 93 -348 172 -50 46 -59 58 -48 68 7 7 103 70 213
139 l200 127 6 -128 c4 -70 7 -186 8 -256z"/>
<path d="M1525 3981 c-44 -20 -110 -87 -126 -129 -16 -42 -14 -133 5 -177 38
-89 115 -139 217 -140 56 0 73 4 114 30 74 46 108 101 113 181 6 85 -16 141
-73 192 -71 62 -170 80 -250 43z m150 -156 c41 -40 33 -105 -17 -131 -59 -30
-119 5 -121 72 -2 73 87 111 138 59z"/>
</g>
</svg>
