<svg id="svg" version="1.1" xmlns="http://www.w3.org/2000/svg" xmlns:xlink="http://www.w3.org/1999/xlink" width="400" height="400" viewBox="0, 0, 400,400"><g id="svgg"><path id="path0" d="M319.141 0.490 C 306.374 2.342,299.947 3.496,292.969 5.192 C 257.228 13.876,221.201 31.964,191.027 56.374 L 184.214 61.885 178.403 61.020 C 141.319 55.505,98.151 78.038,98.341 102.812 C 98.409 111.653,100.378 114.721,116.176 130.608 L 129.921 144.430 126.700 155.223 C 117.691 185.415,110.937 229.709,110.938 258.610 C 110.938 261.680,110.674 264.059,110.352 263.895 C 73.297 245.083,40.782 246.400,12.013 267.877 C -1.224 277.759,-2.585 282.196,5.274 289.840 C 24.995 309.017,57.892 317.299,85.547 310.047 L 92.578 308.203 90.731 315.234 C 83.481 342.834,91.721 375.742,110.790 395.351 C 118.960 403.752,124.578 401.424,135.531 385.099 C 154.522 356.793,154.963 326.036,136.886 290.430 C 136.722 290.107,138.991 289.840,141.927 289.836 C 171.206 289.794,215.632 283.046,245.524 274.100 L 256.351 270.861 270.168 284.597 C 286.247 300.582,288.989 302.324,298.103 302.336 C 322.516 302.370,344.900 260.130,339.892 223.480 L 338.929 216.435 345.096 208.768 C 380.912 164.241,400.008 114.491,399.995 65.743 C 399.983 25.572,390.702 10.211,361.818 2.555 C 354.491 0.613,327.346 -0.700,319.141 0.490 M347.461 16.818 C 358.930 17.870,369.774 22.098,374.637 27.413 C 384.556 38.255,387.287 66.748,381.220 96.094 C 377.839 112.448,369.741 136.922,367.279 138.225 C 362.850 140.569,347.702 141.196,337.092 139.475 C 325.526 137.599,319.797 135.446,302.096 126.322 C 296.312 123.341,290.412 127.047,290.412 133.661 C 290.412 143.845,322.186 156.438,348.239 156.580 C 354.361 156.613,359.371 156.775,359.372 156.939 C 359.428 162.887,328.908 204.067,313.560 218.750 C 279.645 251.197,218.009 270.979,143.945 273.187 L 127.344 273.681 127.347 263.598 C 127.371 187.464,150.192 117.800,186.640 82.599 C 202.279 67.496,238.517 41.406,243.857 41.406 C 244.086 41.406,244.113 44.172,243.917 47.553 C 243.243 59.193,246.738 79.250,250.990 88.147 C 254.261 94.991,262.122 96.188,265.663 90.382 C 267.650 87.122,267.598 86.234,264.947 78.240 C 260.000 63.321,258.787 38.602,262.741 33.301 C 264.961 30.325,292.412 21.701,309.375 18.651 C 323.782 16.061,333.896 15.574,347.461 16.818 M332.360 57.144 C 329.717 58.426,327.882 62.260,328.395 65.423 C 329.999 75.305,344.531 74.431,344.531 64.453 C 344.531 58.329,338.000 54.407,332.360 57.144 M163.611 82.617 C 156.138 91.342,148.353 103.431,141.942 116.266 L 136.353 127.453 125.598 116.552 C 111.253 102.012,111.149 100.284,124.043 90.776 C 135.896 82.035,150.365 76.908,163.890 76.654 L 168.796 76.563 163.611 82.617 M270.084 106.262 C 262.170 112.487,269.974 124.541,278.922 119.914 C 281.832 118.409,282.813 116.539,282.813 112.491 C 282.813 105.942,275.217 102.225,270.084 106.262 M323.979 239.258 C 323.072 253.016,317.500 267.245,308.662 278.367 C 299.839 289.470,298.538 289.300,284.211 275.165 L 273.292 264.392 284.503 258.804 C 297.515 252.319,309.657 244.497,317.969 237.246 C 321.191 234.434,323.969 232.111,324.141 232.083 C 324.313 232.054,324.240 235.283,323.979 239.258 M81.896 269.475 C 89.170 271.581,96.371 274.844,102.024 278.597 L 106.461 281.542 104.207 283.391 C 84.397 299.645,48.802 300.184,25.191 284.586 L 21.084 281.873 22.857 280.478 C 37.616 268.869,63.282 264.086,81.896 269.475 M126.121 305.859 C 137.446 328.593,135.608 356.362,121.461 376.260 L 118.961 379.776 116.222 375.630 C 100.706 352.144,100.788 320.747,116.425 298.020 L 118.944 294.358 120.781 296.593 C 121.792 297.822,124.195 301.992,126.121 305.859 " stroke="none" ></path></g></svg>