<?xml version="1.0" standalone="no"?>
<!DOCTYPE svg PUBLIC "-//W3C//DTD SVG 20010904//EN"
 "http://www.w3.org/TR/2001/REC-SVG-20010904/DTD/svg10.dtd">
<svg version="1.0" xmlns="http://www.w3.org/2000/svg"
 width="512.000000pt" height="512.000000pt" viewBox="0 0 512.000000 512.000000"
 preserveAspectRatio="xMidYMid meet">

<g transform="translate(0.000000,512.000000) scale(0.100000,-0.100000)"
 stroke="none">
<path d="M2117 4505 l-436 -605 290 0 289 0 0 -138 0 -138 78 -38 c42 -21 110
-60 150 -88 l73 -49 74 51 c41 28 108 67 150 86 l75 36 0 139 0 139 289 0 290
0 -436 605 c-240 333 -439 605 -443 605 -4 0 -203 -272 -443 -605z"/>
<path d="M610 3593 c-327 -237 -596 -436 -598 -441 -1 -5 267 -205 598 -445
l600 -436 0 290 0 291 283 -4 c318 -4 348 -10 475 -89 35 -21 65 -39 66 -39 2
0 13 28 26 63 37 104 128 270 201 366 l68 92 -52 33 c-80 51 -149 84 -247 116
-142 48 -251 60 -552 60 l-268 0 -2 288 -3 287 -595 -432z"/>
<path d="M3910 3741 l0 -289 -312 -5 c-332 -5 -367 -9 -524 -62 -216 -73 -439
-235 -576 -418 -55 -75 -158 -264 -158 -292 0 -10 9 -10 48 2 31 11 88 16 172
17 140 1 192 -11 320 -70 l76 -35 79 78 c92 90 169 135 281 163 67 17 111 20
335 20 l259 0 2 -288 3 -288 595 432 c327 238 596 437 598 442 1 5 -235 182
-525 393 -290 210 -561 407 -600 436 l-73 54 0 -290z"/>
<path d="M2455 2386 c-83 -20 -146 -56 -211 -120 -136 -137 -171 -337 -87
-514 52 -111 192 -220 303 -238 23 -4 39 -8 38 -10 -2 -2 -39 -10 -83 -19
-158 -33 -282 -102 -395 -221 -109 -114 -163 -217 -194 -366 -13 -63 -16 -151
-16 -488 l0 -410 750 0 750 0 0 410 c0 337 -3 425 -16 488 -41 196 -158 369
-327 479 -86 56 -160 87 -262 108 -44 9 -81 17 -83 19 -1 2 16 6 39 10 112 18
249 126 302 239 83 178 50 376 -87 513 -114 114 -267 158 -421 120z"/>
</g>
</svg>
