<svg version="1.1" id="Layer_1" xmlns="http://www.w3.org/2000/svg" xmlns:xlink="http://www.w3.org/1999/xlink" x="0px" y="0px"
	 width="100%" viewBox="0 0 512 512" enable-background="new 0 0 512 512" xml:space="preserve">
<path stroke="none" 
	d="
M257.625000,1.000000 
	C264.950195,2.646946 268.052338,8.887151 272.416382,13.461339 
	C279.506073,20.892405 286.003387,28.886520 292.802795,36.597080 
	C305.512512,51.009983 318.237061,65.409958 331.004364,79.771820 
	C334.969879,84.232590 339.037292,88.606728 343.168152,92.914963 
	C345.263000,95.099747 347.357605,97.346733 348.153625,100.246727 
	C349.889832,106.571915 345.591339,111.222572 337.786469,111.315659 
	C325.457428,111.462708 313.119934,111.561760 300.797089,111.247795 
	C295.896210,111.122932 294.130676,112.327560 294.220795,117.583664 
	C294.540588,136.241058 294.344696,154.907272 294.344177,173.570145 
	C294.344116,175.351807 294.344177,177.133453 294.344177,179.708878 
	C301.206512,176.843338 307.182587,174.108978 313.327667,171.830444 
	C327.104675,166.722061 341.364594,163.838226 356.083740,163.682846 
	C369.746094,163.538605 383.414032,163.493408 397.073456,163.739456 
	C401.534821,163.819809 402.822357,162.282547 402.732483,157.967682 
	C402.493164,146.475052 402.746521,134.972977 402.609650,123.476974 
	C402.561829,119.460358 403.556458,115.838593 407.215973,114.247894 
	C410.826752,112.678360 414.765625,113.288681 417.942749,116.068825 
	C427.176666,124.148941 436.354187,132.293564 445.597809,140.362503 
	C453.468353,147.232819 461.397217,154.036377 469.305206,160.863754 
	C478.466461,168.773132 487.616943,176.695114 496.803772,184.574722 
	C501.962128,188.999130 507.184479,193.348984 512.688965,197.866211 
	C513.000000,201.361282 513.000000,204.722580 513.000000,208.541931 
	C504.185547,215.252701 496.528015,222.881332 488.294464,229.824356 
	C476.508484,239.763000 464.833282,249.834686 453.197174,259.948914 
	C441.678375,269.961090 430.209625,280.032715 418.831787,290.204529 
	C412.991547,295.425720 406.546417,295.103149 403.421356,289.217834 
	C402.488434,287.460968 402.685120,285.662964 402.680542,283.863892 
	C402.645782,270.203522 402.492859,256.539978 402.747253,242.884338 
	C402.830536,238.410614 401.321289,237.171997 396.998260,237.264053 
	C385.175751,237.515823 373.341797,237.189224 361.516815,237.375107 
	C338.382904,237.738785 319.948395,247.337906 306.414734,266.131195 
	C298.099670,277.677734 294.273499,290.642639 294.305420,304.869659 
	C294.386169,340.853088 294.345459,376.836823 294.339600,412.820435 
	C294.339172,415.299072 294.466888,417.752930 293.369812,420.159210 
	C291.667511,423.892914 288.611328,425.374084 284.946045,424.794708 
	C280.970306,424.166229 277.691864,422.160950 277.680756,417.338013 
	C277.668457,412.007202 277.750549,406.674500 277.638733,401.345856 
	C277.016602,371.701141 268.255676,344.994446 249.036377,322.031799 
	C229.419205,298.593781 204.554977,284.232666 174.606186,278.367737 
	C164.083115,276.307007 153.501297,276.308533 142.878006,276.345490 
	C130.383850,276.388885 117.889267,276.392090 105.395164,276.341187 
	C97.984261,276.311005 94.727570,273.092377 94.677460,265.759277 
	C94.615028,256.621857 94.662476,247.483673 94.662476,238.345825 
	C94.227058,238.014587 93.791649,237.683365 93.356232,237.352142 
	C69.752594,257.844788 46.148956,278.337433 22.270802,299.068420 
	C25.250595,304.043335 30.186382,306.528534 33.808628,310.301300 
	C36.552532,313.159210 39.928333,315.400177 42.796356,318.151825 
	C46.330433,321.542511 46.663979,327.033478 43.810997,330.280792 
	C40.542595,334.000946 36.227448,334.398468 31.895075,330.879669 
	C21.467493,322.410217 11.248242,313.689209 1.229773,304.238892 
	C1.000000,301.299988 1.000000,298.599976 1.000002,295.449982 
	C9.459541,287.529663 17.883352,280.018372 26.388268,272.600037 
	C35.634262,264.535370 44.949909,256.550446 54.245457,248.542648 
	C68.446114,236.309280 82.695419,224.131882 96.831131,211.823990 
	C100.055733,209.016327 103.649803,208.909866 107.036743,210.394424 
	C110.581276,211.948044 111.400452,215.482605 111.374619,219.251038 
	C111.294647,230.915985 111.488998,242.584442 111.272980,254.245911 
	C111.197754,258.306763 112.370483,259.811249 116.613708,259.732056 
	C129.274704,259.495850 141.943008,259.620697 154.608307,259.653656 
	C175.339630,259.707611 195.023392,264.336609 213.709244,273.282623 
	C215.059448,273.929077 216.430084,274.536072 217.814133,275.105743 
	C218.074997,275.213104 218.444641,275.056152 218.878265,275.008667 
	C220.245056,273.295898 219.613495,271.219025 219.616318,269.312500 
	C219.662842,237.982376 219.638260,206.652161 219.662170,175.321991 
	C219.666870,169.160675 222.201813,165.410004 226.621964,164.746307 
	C232.334686,163.888535 236.284882,167.482178 236.309052,173.862625 
	C236.378510,192.193863 236.340042,210.525513 236.343857,228.857010 
	C236.344299,231.011078 236.343918,233.165146 236.343918,236.754807 
	C241.208832,229.827820 244.844986,223.692322 249.241455,218.072891 
	C256.258636,209.103760 264.192291,201.126297 273.113281,194.187363 
	C276.400818,191.630219 277.720917,189.019272 277.705170,184.996048 
	C277.599731,157.999161 277.642151,131.001663 277.658936,104.004372 
	C277.663147,97.238586 280.197571,94.684174 286.954102,94.660950 
	C297.765808,94.623787 308.577728,94.651009 319.389557,94.651009 
	C319.729065,94.220726 320.068604,93.790451 320.408142,93.360168 
	C299.415009,69.730293 278.421844,46.100414 257.020325,22.010849 
	C235.578064,46.117714 214.593735,69.709755 193.004532,93.981834 
	C199.362488,95.118744 204.643890,94.527367 209.881332,94.624893 
	C215.878769,94.736565 221.880539,94.601509 227.878769,94.688911 
	C233.555023,94.771629 236.306778,97.605392 236.323898,103.373009 
	C236.361984,116.204926 236.364044,129.037170 236.313889,141.869034 
	C236.291718,147.538147 233.396942,151.104156 228.871399,151.296906 
	C223.997375,151.504486 219.875214,147.637085 219.732147,142.124496 
	C219.511749,133.630875 219.452042,125.121048 219.731857,116.631538 
	C219.872787,112.355980 218.258255,111.234650 214.233444,111.293877 
	C201.570969,111.480209 188.902344,111.457024 176.238937,111.293739 
	C168.464142,111.193497 165.115784,107.736656 165.636719,101.255554 
	C165.827118,98.886749 167.103470,97.116577 168.470413,95.572884 
	C177.926422,84.894188 187.574722,74.386040 197.064560,63.736942 
	C209.080994,50.252590 221.005386,36.686192 232.970154,23.155787 
	C238.679199,16.699722 244.330124,10.190310 250.154190,3.839728 
	C251.214722,2.683344 252.985428,2.178274 254.714142,1.186266 
	C255.750000,1.000000 256.500000,1.000000 257.625000,1.000000 
M467.650543,225.137863 
	C474.700195,219.105789 481.709290,213.025314 488.819946,207.066025 
	C491.575439,204.756699 492.076569,203.002899 488.928558,200.398285 
	C480.371155,193.318008 472.019348,185.987366 463.643677,178.689789 
	C452.265411,168.776093 441.088409,158.623413 429.490570,148.975342 
	C426.545563,146.525421 424.313690,142.923859 420.350525,141.708832 
	C418.797516,143.269791 419.398712,145.031219 419.382935,146.609360 
	C419.311279,153.770798 419.357758,160.933350 419.345947,168.095474 
	C419.330536,177.429199 416.508270,180.328720 407.205414,180.351059 
	C390.382782,180.391449 373.559357,180.275467 356.737732,180.411118 
	C351.946777,180.449753 347.072632,180.679993 342.387787,181.595642 
	C319.406158,186.087402 298.489136,194.858002 280.427460,210.341629 
	C258.265289,229.340408 244.613724,253.065399 238.564682,281.385132 
	C237.815231,284.893860 237.277451,288.268524 241.661835,290.699829 
	C245.200226,292.662018 248.030106,295.968750 251.021591,298.838196 
	C261.333557,308.729340 269.954376,319.957825 277.651184,333.585175 
	C277.651184,325.873535 277.635681,319.448578 277.654968,313.023743 
	C277.681396,304.226288 277.069580,295.365509 279.113922,286.709808 
	C283.593597,267.743011 292.943726,251.940659 308.308380,239.449341 
	C323.820740,226.837936 341.258606,220.717667 361.036713,220.668289 
	C377.359619,220.627533 393.682770,220.643555 410.005768,220.665558 
	C416.514130,220.674347 419.283569,223.431030 419.326996,230.089783 
	C419.395447,240.582703 419.318054,251.076599 419.387329,261.569519 
	C419.396271,262.924591 418.678986,264.566925 420.582550,265.869568 
	C436.079773,252.472565 451.607635,239.049026 467.650543,225.137863 
z"/>
<path  stroke="none" 
	d="
M225.468658,513.000000 
	C220.834488,510.274536 219.574432,506.371582 219.590881,501.499054 
	C219.703903,468.002258 219.503540,434.504089 219.689224,401.007904 
	C219.876663,367.196533 195.929123,340.432800 164.413940,334.394867 
	C153.340302,332.273285 142.173569,333.771545 131.056732,333.370148 
	C126.396622,333.201904 121.698013,333.662445 117.066422,333.263031 
	C112.228142,332.845703 111.184608,334.865173 111.262177,339.295013 
	C111.501381,352.956329 111.309586,366.624695 111.371521,380.289917 
	C111.388329,383.999359 110.750801,386.992340 107.030151,389.026001 
	C103.096031,391.176300 99.748398,390.153442 96.894203,387.698639 
	C83.059090,375.799377 69.368752,363.731323 55.674355,351.669434 
	C53.096519,349.398895 51.257046,346.616364 52.051182,342.930420 
	C53.518600,336.119446 61.262444,334.087860 67.111099,339.077759 
	C75.308220,346.071320 83.378090,353.213928 91.516716,360.276245 
	C92.224808,360.890686 92.759148,361.900146 94.657555,361.483795 
	C94.657555,354.210297 94.654747,346.785767 94.658554,339.361237 
	C94.661034,334.528351 94.541931,329.690704 94.715973,324.863800 
	C94.909500,319.496277 97.873276,316.688812 103.230392,316.677307 
	C121.895401,316.637238 140.584167,316.076599 159.218567,316.832031 
	C175.662247,317.498688 190.499588,323.695984 203.660156,333.678772 
	C220.075806,346.130615 230.293869,362.556427 234.714767,382.587128 
	C235.709320,387.093353 236.351440,391.699524 236.345612,396.376923 
	C236.306595,427.707550 236.443939,459.039124 236.218018,490.368164 
	C236.180939,495.507843 237.712677,496.955963 242.738190,496.762665 
	C252.556122,496.385040 262.402374,496.502899 272.229767,496.727692 
	C276.317780,496.821167 277.785461,495.514679 277.727142,491.319489 
	C277.525757,476.823547 277.637390,462.322998 277.660187,447.824249 
	C277.669281,442.045105 280.239899,438.945068 285.127380,438.682312 
	C290.762115,438.379456 294.162689,441.203094 294.230103,447.330383 
	C294.439178,466.326355 294.356750,485.326141 294.286133,504.324066 
	C294.273071,507.840820 292.738495,510.743622 289.264160,512.771362 
	C267.979095,513.000000 246.958206,513.000000 225.468658,513.000000 
z"/>
</svg>