<?xml version="1.0" standalone="no"?>
<!DOCTYPE svg PUBLIC "-//W3C//DTD SVG 20010904//EN"
 "http://www.w3.org/TR/2001/REC-SVG-20010904/DTD/svg10.dtd">
<svg version="1.0" xmlns="http://www.w3.org/2000/svg"
 width="512.000000pt" height="512.000000pt" viewBox="0 0 512.000000 512.000000"
 preserveAspectRatio="xMidYMid meet">

<g transform="translate(0.000000,512.000000) scale(0.100000,-0.100000)"
 stroke="none">
<path d="M2315 5109 c-798 -81 -1501 -518 -1927 -1196 -487 -774 -516 -1777
-75 -2578 198 -360 493 -682 833 -908 326 -216 686 -350 1099 -409 119 -17
512 -16 635 1 581 80 1093 333 1492 737 212 216 350 407 483 675 164 331 247
662 262 1039 33 889 -408 1740 -1157 2233 -135 88 -413 225 -560 275 -137 47
-336 95 -480 117 -126 19 -478 28 -605 14z m430 -169 c851 -73 1586 -571 1955
-1325 173 -353 244 -660 244 -1055 0 -243 -15 -368 -69 -585 -91 -362 -278
-717 -524 -995 l-40 -45 -175 174 -175 175 79 82 c123 131 205 267 259 434 46
138 51 208 51 644 0 444 -6 522 -55 691 -33 116 -129 310 -197 400 -204 268
-520 454 -895 525 -484 91 -1085 -8 -1581 -262 l-116 -59 -283 283 c-156 156
-283 286 -283 289 0 12 194 166 291 232 436 295 993 441 1514 397z m-1660
-1030 l270 -270 -25 -17 c-13 -9 -64 -50 -112 -91 -236 -198 -387 -446 -433
-711 -22 -123 -22 -911 0 -996 54 -212 225 -386 431 -440 74 -19 241 -19 314
0 30 8 109 42 175 75 73 37 143 65 180 71 69 13 169 5 238 -17 26 -9 168 -88
315 -176 427 -256 503 -288 728 -307 191 -16 368 16 544 100 l104 50 183 -183
c101 -101 183 -185 183 -189 0 -8 -176 -152 -252 -205 -304 -215 -703 -367
-1093 -415 -129 -16 -421 -16 -550 0 -1087 134 -1925 952 -2092 2041 -24 162
-24 500 1 665 23 152 74 352 121 480 55 152 164 367 253 500 76 113 227 305
241 305 3 0 128 -121 276 -270z m1907 5 c254 -15 522 -104 715 -237 313 -215
486 -574 470 -978 -6 -148 -30 -248 -87 -369 -55 -115 -113 -192 -212 -287
-100 -94 -215 -162 -346 -204 l-94 -31 -556 550 c-307 302 -658 651 -781 774
l-224 225 33 17 c61 32 255 102 355 129 55 15 117 31 137 37 69 18 92 96 42
146 -23 23 -31 25 -79 19 -113 -13 -415 -115 -561 -189 l-51 -26 -63 64 c-35
36 -62 67 -59 70 10 9 194 92 284 128 95 37 255 86 365 111 169 38 451 67 575
60 28 -2 89 -6 137 -9z m-1402 -516 c0 -3 -25 -23 -55 -43 -159 -106 -365
-361 -365 -453 0 -41 25 -71 65 -79 48 -9 73 10 120 90 75 129 206 264 323
333 l44 26 739 -739 c406 -406 737 -740 735 -742 -10 -9 -197 32 -262 58 -40
16 -201 105 -356 198 -156 93 -307 181 -335 196 -87 43 -173 59 -303 54 -133
-6 -205 -26 -312 -90 -204 -121 -422 -98 -570 60 -88 94 -118 183 -118 351 0
203 50 373 157 534 61 92 196 233 297 309 l79 59 59 -58 c32 -31 58 -60 58
-64z m-520 -1357 c19 -11 71 -33 115 -48 67 -23 97 -27 185 -28 131 0 185 15
343 97 l119 62 131 0 132 0 85 -41 c47 -23 189 -105 317 -182 127 -78 260
-155 295 -173 143 -72 267 -101 447 -104 l133 -2 154 -154 c85 -85 154 -157
154 -160 0 -3 -30 -20 -67 -37 -215 -99 -502 -98 -718 2 -40 19 -203 111 -360
206 -158 95 -311 181 -341 191 -94 33 -195 43 -301 30 -113 -14 -183 -37 -272
-90 -102 -60 -154 -74 -269 -69 -83 3 -107 8 -165 35 -42 20 -88 53 -121 86
-96 96 -126 181 -126 360 l0 118 48 -39 c26 -21 63 -48 82 -60z m3106 9 c-18
-216 -119 -431 -276 -586 l-60 -60 -132 132 -132 133 33 11 c69 24 209 99 281
150 87 61 191 165 245 244 21 30 40 55 43 55 3 0 2 -35 -2 -79z"/>
<path d="M2752 3751 c-51 -5 -68 -11 -83 -30 -26 -32 -24 -77 6 -106 21 -22
33 -25 98 -25 59 0 80 4 99 20 32 24 39 59 22 99 -11 27 -51 54 -72 49 -4 0
-36 -4 -70 -7z"/>
<path d="M3190 3390 c-152 -55 -254 -178 -282 -339 -47 -277 209 -532 488
-484 139 24 257 113 317 240 40 87 50 218 22 304 -44 135 -153 244 -285 283
-74 22 -192 20 -260 -4z m240 -171 c95 -43 150 -129 150 -235 0 -114 -70 -209
-179 -241 -241 -70 -429 214 -269 407 22 27 86 71 115 80 52 15 136 11 183
-11z"/>
</g>
</svg>
