<?xml version="1.0" standalone="no"?>
<!DOCTYPE svg PUBLIC "-//W3C//DTD SVG 20010904//EN"
 "http://www.w3.org/TR/2001/REC-SVG-20010904/DTD/svg10.dtd">
<svg version="1.0" xmlns="http://www.w3.org/2000/svg"
 width="512.000000pt" height="512.000000pt" viewBox="0 0 512.000000 512.000000"
 preserveAspectRatio="xMidYMid meet">

<g transform="translate(0.000000,512.000000) scale(0.100000,-0.100000)"
 stroke="none">
<path d="M3341 5103 c-65 -23 -126 -89 -146 -157 -15 -53 -15 -73 5 -332 12
-152 20 -278 18 -280 -3 -2 -39 -13 -82 -24 -205 -52 -376 -205 -450 -402 -14
-37 -37 -125 -52 -197 -30 -144 -27 -183 20 -237 l23 -27 -48 -231 c-153 -736
-182 -884 -175 -910 4 -18 18 -32 38 -40 36 -16 60 -11 84 15 14 16 80 316
234 1075 10 48 13 52 53 64 28 8 64 34 114 83 l73 70 78 -75 c91 -89 121 -100
185 -69 23 11 69 47 101 80 l60 60 77 -74 c65 -62 84 -75 121 -80 62 -9 93 6
175 87 l72 71 75 -71 c50 -47 89 -75 115 -83 23 -7 41 -13 41 -13 0 -1 25
-120 55 -266 45 -218 58 -268 76 -282 46 -39 119 -8 119 50 0 15 -23 142 -52
282 l-52 256 28 36 c15 21 30 54 33 75 5 37 -31 227 -61 324 -69 222 -287 408
-523 444 -40 6 -41 8 -37 38 14 104 44 442 44 502 0 46 -7 84 -19 110 -23 51
-98 118 -149 133 -56 17 -217 14 -271 -5z m258 -157 c12 -11 25 -33 29 -49 5
-18 -5 -157 -25 -351 -18 -177 -32 -324 -33 -328 0 -3 -12 -20 -26 -37 -20
-24 -34 -31 -63 -31 -39 0 -75 19 -91 49 -5 10 -21 169 -35 354 -28 361 -27
368 23 400 39 25 191 20 221 -7z m-351 -795 c15 -43 81 -111 127 -132 61 -28
149 -25 214 7 54 27 106 85 118 132 5 22 9 23 51 17 72 -11 146 -42 210 -89
118 -87 177 -191 218 -382 14 -65 22 -124 20 -131 -3 -7 -17 -13 -32 -13 -20
0 -48 21 -109 80 -127 125 -158 126 -282 7 l-83 -80 -79 76 c-126 120 -165
122 -283 9 l-78 -75 -78 75 c-118 113 -151 111 -277 -12 -61 -59 -89 -80 -109
-80 -15 0 -29 6 -32 13 -10 26 55 277 88 340 61 117 200 227 324 256 59 14 61
13 72 -18z"/>
<path d="M3455 3259 c-46 -26 -45 -2 -45 -795 0 -745 0 -752 21 -778 27 -34
77 -36 107 -3 l22 23 0 756 c0 705 -1 757 -17 776 -22 26 -62 35 -88 21z"/>
<path d="M3062 3190 c-12 -5 -26 -20 -31 -32 -12 -32 -181 -1001 -181 -1038 0
-60 71 -91 119 -52 20 15 32 76 111 527 50 281 90 520 90 533 0 27 -42 72 -67
71 -10 0 -28 -4 -41 -9z"/>
<path d="M3825 3175 c-14 -13 -25 -32 -25 -42 0 -10 45 -274 99 -587 73 -417
104 -573 117 -587 39 -43 124 -10 124 49 0 15 -43 279 -97 587 -86 492 -100
563 -120 583 -29 29 -68 28 -98 -3z"/>
<path d="M4357 2693 c-9 -2 -24 -17 -32 -33 -14 -27 -8 -63 99 -582 135 -652
141 -689 133 -822 -27 -427 -189 -734 -493 -933 -319 -207 -707 -228 -1054
-56 -63 31 -126 56 -140 55 -55 -5 -84 -79 -47 -120 54 -60 318 -162 484 -187
578 -87 1136 256 1323 813 61 182 92 450 72 614 -11 89 -224 1135 -243 1195
-16 51 -51 69 -102 56z"/>
<path d="M1362 2493 c-47 -30 -82 -91 -82 -139 1 -16 7 -47 15 -69 8 -22 15
-45 15 -51 0 -6 -24 -15 -52 -18 -209 -28 -462 -166 -600 -328 -65 -76 -128
-177 -128 -205 0 -29 42 -73 69 -73 37 0 52 13 102 86 95 141 248 266 399 323
74 29 188 57 196 48 2 -2 -1 -18 -7 -36 -29 -82 29 -185 119 -212 38 -11 57
-9 171 14 71 15 141 27 156 27 15 0 85 -12 156 -27 111 -23 134 -25 168 -14
104 31 153 135 114 238 -5 13 1 14 38 8 75 -12 191 -54 269 -98 103 -58 260
-215 317 -317 88 -158 127 -351 105 -519 -67 -501 -438 -885 -932 -966 -110
-17 -334 -20 -446 -4 -162 22 -346 92 -475 180 -144 97 -295 270 -373 426 -91
183 -133 413 -107 583 11 68 10 76 -7 100 -21 28 -69 38 -101 20 -33 -17 -45
-83 -45 -240 1 -206 37 -350 136 -543 186 -361 533 -609 943 -672 146 -23 428
-16 560 13 501 113 872 488 981 994 24 107 24 313 1 415 -58 258 -219 492
-432 628 -119 76 -278 138 -390 151 -30 4 -55 12 -55 18 0 6 7 31 16 56 28 81
-4 164 -80 211 -42 25 -87 24 -237 -7 l-125 -27 -123 27 c-159 34 -195 33
-249 -1z m225 -148 c65 -14 131 -25 146 -25 16 0 87 12 158 27 88 18 133 23
140 16 7 -7 0 -35 -21 -89 -38 -93 -37 -130 5 -229 20 -45 25 -69 18 -76 -7
-7 -49 -2 -134 16 -68 14 -142 26 -164 26 -22 0 -96 -12 -164 -26 -80 -17
-127 -23 -133 -17 -7 7 1 39 22 93 37 97 36 132 -5 225 -27 60 -27 84 0 84 8
0 68 -11 132 -25z"/>
<path d="M1635 2215 c-14 -13 -25 -31 -25 -39 0 -28 22 -64 47 -75 31 -14 125
-14 157 0 51 23 55 103 7 128 -11 6 -52 11 -91 11 -62 0 -74 -3 -95 -25z"/>
<path d="M2565 1298 c-22 -20 -27 -35 -35 -113 -12 -110 -31 -180 -76 -265
-111 -213 -326 -356 -563 -376 -99 -8 -131 -28 -131 -79 0 -25 7 -39 28 -55
24 -20 35 -22 108 -16 416 31 759 375 781 782 l6 100 -28 22 c-35 28 -57 28
-90 0z"/>
<path d="M4215 1295 c-19 -18 -25 -35 -25 -65 0 -54 -26 -179 -52 -247 -29
-78 -110 -194 -177 -255 -119 -108 -270 -173 -425 -185 -65 -5 -84 -11 -103
-29 -30 -30 -29 -69 2 -99 19 -20 34 -25 77 -25 141 0 340 70 471 164 207 147
345 402 350 644 2 77 0 85 -22 103 -32 26 -67 24 -96 -6z"/>
</g>
</svg>
