<?xml version="1.0" standalone="no"?>
<!DOCTYPE svg PUBLIC "-//W3C//DTD SVG 20010904//EN"
 "http://www.w3.org/TR/2001/REC-SVG-20010904/DTD/svg10.dtd">
<svg version="1.0" xmlns="http://www.w3.org/2000/svg"
 width="512.000000pt" height="512.000000pt" viewBox="0 0 512.000000 512.000000"
 preserveAspectRatio="xMidYMid meet">

<g transform="translate(0.000000,512.000000) scale(0.100000,-0.100000)"
 stroke="none">
<path d="M3780 4943 c-500 -36 -864 -186 -1150 -473 -221 -221 -352 -466 -420
-785 -27 -127 -38 -450 -21 -606 13 -114 64 -374 84 -434 l13 -38 80 109 c423
582 957 1099 1566 1517 69 48 139 90 155 93 41 8 93 -36 93 -78 0 -47 -15 -64
-123 -137 -660 -442 -1268 -1054 -1700 -1711 -202 -308 -291 -505 -391 -862
-13 -45 -23 -61 -46 -73 -78 -41 -111 -7 -150 153 -137 564 -511 1393 -894
1981 -145 223 -393 552 -433 574 -8 5 -26 4 -43 -3 -34 -14 -230 -221 -230
-243 0 -8 45 -76 100 -151 448 -607 868 -1455 1151 -2321 127 -387 234 -846
264 -1125 9 -84 29 -125 70 -144 39 -19 65 -20 99 -4 40 18 51 43 101 234 197
760 454 1467 654 1798 72 118 95 136 179 136 100 0 320 27 461 56 233 48 458
135 611 236 90 59 222 188 276 269 102 154 147 278 308 855 63 226 129 446
146 490 69 174 178 357 301 503 34 40 59 74 58 76 -8 7 -320 64 -434 79 -244
31 -542 43 -735 29z"/>
</g>
</svg>
