<?xml version="1.0" standalone="no"?>
<!DOCTYPE svg PUBLIC "-//W3C//DTD SVG 20010904//EN"
 "http://www.w3.org/TR/2001/REC-SVG-20010904/DTD/svg10.dtd">
<svg version="1.0" xmlns="http://www.w3.org/2000/svg"
 width="111.000000pt" height="110.000000pt" viewBox="0 0 111.000000 110.000000"
 preserveAspectRatio="xMidYMid meet">

<g transform="translate(0.000000,110.000000) scale(0.100000,-0.100000)"
fill="#000000" stroke="none">
<path d="M721 1002 c-49 -69 -51 -199 -5 -267 13 -20 24 -46 24 -58 0 -16 -8
-9 -29 29 -37 64 -89 110 -142 124 -52 14 -64 4 -63 -53 2 -79 70 -173 151
-209 46 -20 63 -42 63 -82 0 -31 29 -36 47 -7 7 11 27 20 55 23 63 7 114 35
173 93 59 60 87 111 93 176 4 41 2 48 -17 54 -61 19 -194 -48 -248 -126 -56
-79 -53 -77 -46 -39 3 19 12 42 19 50 42 49 60 177 34 245 -15 39 -49 75 -71
75 -10 0 -27 -13 -38 -28z m77 -94 c5 -24 7 -60 4 -80 -4 -34 -6 -36 -19 -22
-17 17 -29 10 -35 -21 -3 -14 -8 -8 -17 24 -14 48 -7 109 16 155 14 28 15 28
29 8 8 -12 18 -40 22 -64z m-177 -155 c22 -20 47 -49 55 -64 13 -26 13 -29 -7
-39 -16 -9 -18 -14 -8 -26 17 -20 2 -17 -32 7 -57 40 -105 159 -64 159 8 0 33
-17 56 -37z m429 17 c0 -32 -38 -101 -79 -143 -34 -37 -108 -83 -117 -74 -3 2
11 12 31 21 30 15 34 20 25 36 -10 19 -12 19 -58 -10 -25 -16 -48 -27 -50 -25
-2 2 9 27 24 56 33 60 96 117 156 141 57 22 68 22 68 -2z"/>
<path d="M4 395 c-3 -8 2 -38 12 -67 33 -101 151 -189 315 -235 91 -25 357
-25 448 0 164 46 282 134 315 235 10 29 15 59 12 67 -8 22 -1094 22 -1102 0z
m1056 -40 c0 -44 -71 -123 -150 -168 -25 -14 -79 -36 -120 -49 -65 -20 -96
-23 -235 -23 -139 0 -170 3 -235 23 -121 38 -220 105 -256 174 -32 62 -63 58
491 58 449 0 505 -2 505 -15z"/>
</g>
</svg>
